G04*
G04 #@! TF.GenerationSoftware,Altium Limited,Altium Designer,21.1.1 (26)*
G04*
G04 Layer_Physical_Order=1*
G04 Layer_Color=255*
%FSLAX25Y25*%
%MOIN*%
G70*
G04*
G04 #@! TF.SameCoordinates,F51C65F9-1B59-4754-B465-99DF653E4662*
G04*
G04*
G04 #@! TF.FilePolarity,Positive*
G04*
G01*
G75*
%ADD13C,0.01000*%
%ADD24C,0.06102*%
%ADD25R,0.06102X0.06102*%
%ADD33R,0.03000X0.04000*%
%ADD34R,0.03500X0.03500*%
%ADD35C,0.03937*%
%ADD36R,0.13386X0.05906*%
%ADD37R,0.13780X0.04331*%
%ADD38R,0.04000X0.03000*%
%ADD39R,0.03500X0.03500*%
%ADD40C,0.02000*%
%ADD41C,0.08661*%
%ADD42C,0.02000*%
%ADD43C,0.19685*%
%ADD44C,0.06000*%
%ADD45C,0.07000*%
%ADD46C,0.02165*%
D13*
X281500Y336500D02*
X287000D01*
X253000Y215876D02*
X253624Y216500D01*
X245500Y288000D02*
Y307500D01*
X253000Y211000D02*
Y215876D01*
X205124Y216500D02*
X211000D01*
X156624D02*
X161500D01*
X156124Y217000D02*
X156624Y216500D01*
X197000Y288000D02*
Y307500D01*
X148000Y288000D02*
Y308000D01*
D24*
X264624Y297000D02*
D03*
Y267000D02*
D03*
Y247000D02*
D03*
Y227000D02*
D03*
X234624Y267000D02*
D03*
Y247000D02*
D03*
Y227000D02*
D03*
X167124Y297500D02*
D03*
Y267500D02*
D03*
Y247500D02*
D03*
Y227500D02*
D03*
X137124Y267500D02*
D03*
Y247500D02*
D03*
Y227500D02*
D03*
X216124Y297000D02*
D03*
Y267000D02*
D03*
Y247000D02*
D03*
Y227000D02*
D03*
X186124Y267000D02*
D03*
Y247000D02*
D03*
Y227000D02*
D03*
D25*
X234624Y297000D02*
D03*
X137124Y297500D02*
D03*
X186124Y297000D02*
D03*
D33*
X235000Y216500D02*
D03*
X241247D02*
D03*
X264624Y307500D02*
D03*
X258376D02*
D03*
X167124Y308000D02*
D03*
X160876D02*
D03*
X137500Y217000D02*
D03*
X143747D02*
D03*
X186500Y216500D02*
D03*
X192747D02*
D03*
X216124Y307500D02*
D03*
X209876D02*
D03*
D34*
X247624Y216500D02*
D03*
X253624D02*
D03*
X251500Y307500D02*
D03*
X245500D02*
D03*
X154000Y308000D02*
D03*
X148000D02*
D03*
X150124Y217000D02*
D03*
X156124D02*
D03*
X199124Y216500D02*
D03*
X205124D02*
D03*
X203000Y307500D02*
D03*
X197000D02*
D03*
D35*
X111500Y342000D02*
D03*
X302000Y190000D02*
D03*
D36*
X303594Y228421D02*
D03*
Y260705D02*
D03*
Y267421D02*
D03*
Y299705D02*
D03*
D37*
X280957Y248500D02*
D03*
Y240626D02*
D03*
Y287500D02*
D03*
Y279626D02*
D03*
D38*
X294000Y335876D02*
D03*
Y342124D02*
D03*
D39*
X287000Y336500D02*
D03*
Y342500D02*
D03*
D40*
X264624Y307500D02*
Y308000D01*
X251500Y307500D02*
X258376D01*
X269750Y314750D02*
Y316126D01*
X269062Y315438D02*
X269750Y314750D01*
X234812Y216688D02*
X235000Y216500D01*
X241247D02*
X247624D01*
X234624Y227000D02*
X234812Y226812D01*
Y216688D02*
Y226812D01*
X234624Y286876D02*
X241874Y279626D01*
X264624Y297000D02*
Y307500D01*
X234624Y286876D02*
Y297000D01*
X258328Y211637D02*
X258328D01*
X227000Y216500D02*
Y259376D01*
X258328Y211637D02*
X259500Y212809D01*
X235000Y211500D02*
Y216500D01*
X259500Y212809D02*
Y261876D01*
X264624Y267000D01*
X227000Y259376D02*
X234624Y267000D01*
X270500Y246358D02*
Y278454D01*
X285681Y263181D02*
X295500Y273000D01*
X285681Y248500D02*
Y263181D01*
X286500Y248500D02*
X298000D01*
X285681D02*
X286500D01*
X241874Y279626D02*
X271672D01*
X280957D02*
X298000D01*
X271672D02*
X280957D01*
X275067Y239461D02*
X276232Y240626D01*
X280957D01*
X267000Y198000D02*
Y215373D01*
X275067Y223440D01*
Y239461D01*
X172551Y193000D02*
X179331Y186221D01*
X138500Y214000D02*
X159500Y193000D01*
X172551D01*
X166339Y200787D02*
Y226715D01*
X165551Y200000D02*
X166339Y200787D01*
Y226715D02*
X167124Y227500D01*
X173500Y205831D02*
X179331Y200000D01*
X173500Y205831D02*
Y261124D01*
X167124Y267500D02*
X173500Y261124D01*
X192747Y216500D02*
X199124D01*
X143747Y217000D02*
X150124D01*
X214338Y203839D02*
X227000Y216500D01*
X216124Y267000D02*
X223000Y260124D01*
Y218500D02*
Y260124D01*
X270500Y278454D02*
X271672Y279626D01*
X270500Y246358D02*
X276232Y240626D01*
X287500Y342500D02*
X287688Y342312D01*
X293812D01*
X294000Y342124D01*
X284124Y330500D02*
X289500D01*
X293000Y334000D02*
Y335376D01*
X289500Y330500D02*
X293000Y334000D01*
X269750Y316126D02*
X284124Y330500D01*
X293000Y335376D02*
X293500Y335876D01*
X237500Y347000D02*
X269062Y315438D01*
X293500Y335876D02*
X294000D01*
X269750Y314750D02*
X280957Y303543D01*
X173272Y347500D02*
X185390D01*
X165551Y339779D02*
X173272Y347500D01*
X185390D02*
X193110Y339779D01*
X200831Y347500D02*
X212949D01*
X193110Y339779D02*
X200831Y347500D01*
X212949D02*
X220669Y339779D01*
X227890Y347000D02*
X237500D01*
X220669Y339779D02*
X227890Y347000D01*
X280957Y287500D02*
Y303543D01*
Y287500D02*
X298000D01*
X298765Y286735D01*
X304000Y277000D02*
Y284828D01*
X298765Y286735D02*
X302094D01*
X304000Y284828D01*
X300000Y273000D02*
X304000Y277000D01*
X295500Y273000D02*
X300000D01*
X280957Y248500D02*
X285681D01*
X234449Y200000D02*
X246691D01*
X258328Y211637D01*
X228000Y192669D02*
Y204500D01*
X235000Y211500D01*
X280957Y240626D02*
X298000D01*
X250374Y322250D02*
Y323854D01*
X234449Y339779D02*
X250374Y323854D01*
Y322250D02*
X264624Y308000D01*
X214000Y316000D02*
X216124Y313876D01*
X214000Y316000D02*
Y332669D01*
X206890Y339779D02*
X214000Y332669D01*
X216124Y307500D02*
Y313876D01*
Y297000D02*
Y307500D01*
X203000D02*
X209876D01*
X154000Y308000D02*
X160876D01*
X167124D02*
Y315624D01*
X172590Y321090D02*
Y333039D01*
X167124Y315624D02*
X172590Y321090D01*
Y333039D02*
X179331Y339779D01*
X167124Y297500D02*
Y308000D01*
X228000Y192669D02*
X234449Y186221D01*
X214338Y192551D02*
Y203839D01*
Y192551D02*
X220669Y186221D01*
X208878Y204379D02*
X223000Y218500D01*
X206890Y200000D02*
Y201803D01*
X208878Y203791D01*
Y204379D01*
X199441Y193669D02*
X206890Y186221D01*
X199441Y193669D02*
Y203059D01*
X186500Y216000D02*
X199441Y203059D01*
X186500Y216000D02*
Y216500D01*
X186312Y216688D02*
Y226812D01*
Y216688D02*
X186500Y216500D01*
X186124Y227000D02*
X186312Y226812D01*
X180000Y212000D02*
X185661Y206339D01*
X180000Y212000D02*
Y260876D01*
X186124Y267000D01*
X185661Y193669D02*
Y206339D01*
Y193669D02*
X193110Y186221D01*
X137312Y217188D02*
Y227312D01*
Y217188D02*
X137500Y217000D01*
X137124Y227500D02*
X137312Y227312D01*
X138000Y215000D02*
X138500Y214500D01*
X137500Y217000D02*
X138000Y216500D01*
Y215000D02*
Y216500D01*
X138500Y214000D02*
Y214500D01*
X129500Y259876D02*
X137124Y267500D01*
X129500Y208000D02*
Y259876D01*
X151279Y186221D02*
X165551D01*
X129500Y208000D02*
X151279Y186221D01*
D41*
X234449D02*
D03*
X220669D02*
D03*
X206890D02*
D03*
X193110D02*
D03*
X179331D02*
D03*
X165551D02*
D03*
X234449Y200000D02*
D03*
X220669D02*
D03*
X206890D02*
D03*
X193110D02*
D03*
X179331D02*
D03*
X165551D02*
D03*
X165551Y339779D02*
D03*
X179331D02*
D03*
X193110D02*
D03*
X206890D02*
D03*
X220669D02*
D03*
X234449D02*
D03*
X165551Y326000D02*
D03*
X179331D02*
D03*
X193110D02*
D03*
X206890D02*
D03*
X220669D02*
D03*
X234449D02*
D03*
D42*
X296000Y310000D02*
D03*
X284000D02*
D03*
Y322000D02*
D03*
X281500Y316000D02*
D03*
X290000Y307500D02*
D03*
X296000Y322000D02*
D03*
X298500Y316000D02*
D03*
X290000Y324500D02*
D03*
X116500Y310000D02*
D03*
X104500D02*
D03*
Y322000D02*
D03*
X102000Y316000D02*
D03*
X110500Y307500D02*
D03*
X116500Y322000D02*
D03*
X119000Y316000D02*
D03*
X110500Y324500D02*
D03*
X116000Y204000D02*
D03*
X104000D02*
D03*
Y216000D02*
D03*
X101500Y210000D02*
D03*
X110000Y201500D02*
D03*
X116000Y216000D02*
D03*
X118500Y210000D02*
D03*
X110000Y218500D02*
D03*
X296000Y204000D02*
D03*
X284000D02*
D03*
Y216000D02*
D03*
X281500Y210000D02*
D03*
X290000Y201500D02*
D03*
X296000Y216000D02*
D03*
X298500Y210000D02*
D03*
X290000Y218500D02*
D03*
D43*
Y316000D02*
D03*
X110500D02*
D03*
X110000Y210000D02*
D03*
X290000D02*
D03*
D44*
X298000Y248500D02*
D03*
Y240626D02*
D03*
Y287500D02*
D03*
Y279626D02*
D03*
D45*
X267000Y198000D02*
D03*
X257000D02*
D03*
D46*
X281500Y336500D02*
D03*
X253000Y211000D02*
D03*
X245500Y288000D02*
D03*
X211000Y216500D02*
D03*
X161500D02*
D03*
X148000Y288000D02*
D03*
X197000D02*
D03*
M02*
