G04*
G04 #@! TF.GenerationSoftware,Altium Limited,Altium Designer,21.1.1 (26)*
G04*
G04 Layer_Color=16711935*
%FSLAX25Y25*%
%MOIN*%
G70*
G04*
G04 #@! TF.SameCoordinates,F51C65F9-1B59-4754-B465-99DF653E4662*
G04*
G04*
G04 #@! TF.FilePolarity,Negative*
G04*
G01*
G75*
%ADD19C,0.11811*%
%ADD24C,0.06102*%
%ADD25R,0.06102X0.06102*%
%ADD26C,0.09461*%
%ADD27C,0.17748*%
%ADD28C,0.02800*%
%ADD29C,0.20485*%
%ADD30C,0.06800*%
%ADD31C,0.07800*%
%ADD32C,0.02965*%
D19*
X111500Y342000D02*
D03*
X302000Y190000D02*
D03*
D24*
X264624Y297000D02*
D03*
Y267000D02*
D03*
Y247000D02*
D03*
Y227000D02*
D03*
X234624Y267000D02*
D03*
Y247000D02*
D03*
Y227000D02*
D03*
X167124Y297500D02*
D03*
Y267500D02*
D03*
Y247500D02*
D03*
Y227500D02*
D03*
X137124Y267500D02*
D03*
Y247500D02*
D03*
Y227500D02*
D03*
X216124Y297000D02*
D03*
Y267000D02*
D03*
Y247000D02*
D03*
Y227000D02*
D03*
X186124Y267000D02*
D03*
Y247000D02*
D03*
Y227000D02*
D03*
D25*
X234624Y297000D02*
D03*
X137124Y297500D02*
D03*
X186124Y297000D02*
D03*
D26*
X234449Y186221D02*
D03*
X220669D02*
D03*
X206890D02*
D03*
X193110D02*
D03*
X179331D02*
D03*
X165551D02*
D03*
X234449Y200000D02*
D03*
X220669D02*
D03*
X206890D02*
D03*
X193110D02*
D03*
X179331D02*
D03*
X165551D02*
D03*
X165551Y339779D02*
D03*
X179331D02*
D03*
X193110D02*
D03*
X206890D02*
D03*
X220669D02*
D03*
X234449D02*
D03*
X165551Y326000D02*
D03*
X179331D02*
D03*
X193110D02*
D03*
X206890D02*
D03*
X220669D02*
D03*
X234449D02*
D03*
D27*
X137992Y177559D02*
D03*
X262008D02*
D03*
Y348441D02*
D03*
X137992D02*
D03*
D28*
X296000Y310000D02*
D03*
X284000D02*
D03*
Y322000D02*
D03*
X281500Y316000D02*
D03*
X290000Y307500D02*
D03*
X296000Y322000D02*
D03*
X298500Y316000D02*
D03*
X290000Y324500D02*
D03*
X116500Y310000D02*
D03*
X104500D02*
D03*
Y322000D02*
D03*
X102000Y316000D02*
D03*
X110500Y307500D02*
D03*
X116500Y322000D02*
D03*
X119000Y316000D02*
D03*
X110500Y324500D02*
D03*
X116000Y204000D02*
D03*
X104000D02*
D03*
Y216000D02*
D03*
X101500Y210000D02*
D03*
X110000Y201500D02*
D03*
X116000Y216000D02*
D03*
X118500Y210000D02*
D03*
X110000Y218500D02*
D03*
X296000Y204000D02*
D03*
X284000D02*
D03*
Y216000D02*
D03*
X281500Y210000D02*
D03*
X290000Y201500D02*
D03*
X296000Y216000D02*
D03*
X298500Y210000D02*
D03*
X290000Y218500D02*
D03*
D29*
Y316000D02*
D03*
X110500D02*
D03*
X110000Y210000D02*
D03*
X290000D02*
D03*
D30*
X298000Y248500D02*
D03*
Y240626D02*
D03*
Y287500D02*
D03*
Y279626D02*
D03*
D31*
X267000Y198000D02*
D03*
X257000D02*
D03*
D32*
X281500Y336500D02*
D03*
X253000Y211000D02*
D03*
X245500Y288000D02*
D03*
X211000Y216500D02*
D03*
X161500D02*
D03*
X148000Y288000D02*
D03*
X197000D02*
D03*
M02*
