M48
;Layer_Color=9474304
;FILE_FORMAT=2:4
INCH,TZ
;TYPE=PLATED
T1F00S00C0.0100
T2F00S00C0.0110
T3F00S00C0.0300
T4F00S00C0.0394
T5F00S00C0.0400
T6F00S00C0.0571
T7F00S00C0.1260
T8F00S00C0.1575
%
T01
X28400Y20400
X28150Y21000
X28400Y21600
X29000Y21850
X29600Y21600
X29850Y21000
X29600Y20400
X29000Y20150
Y30750
X29600Y31000
X28400
X11650
X11050Y30750
X10450Y31000
X10400Y21600
X10150Y21000
X10400Y20400
X11000Y20150
X11600Y20400
X11850Y21000
X11600Y21600
X11000Y21850
X10200Y31600
X10450Y32200
X11050Y32450
X11650Y32200
X11900Y31600
X28150
X28400Y32200
X29000Y32450
X29600Y32200
X29850Y31600
T02
X16150Y21650
X21100
X25300Y21100
X24550Y28800
X19700
X14800
X28150Y33650
T03
X29800Y24063
Y24850
Y27963
Y28750
T04
X16712Y22750
X18612Y22700
Y24700
X16712Y24750
Y26750
X18612Y26700
Y29700
X16712Y29750
X21612Y29700
X23462
X26462
Y26700
Y24700
Y22700
X23462
X21612
Y24700
X23462
Y26700
X21612
X13712Y26750
Y24750
Y22750
Y29750
T05
X25700Y19800
X26700
T06
X16555Y18622
X17933
X19311
X20689
X22067
X23445
Y20000
X22067
X20689
X19311
X17933
X16555
X16555Y32600
X17933
X19311
X20689
X22067
X23445
Y33978
X22067
X20689
X19311
X17933
X16555
T07
X29000Y21000
X11000
X11050Y31600
X29000
T08
X26201Y17756
X13799
Y34844
X26201
M30
